<svg width="200" height="60" viewBox="0 0 200 60" fill="none" xmlns="http://www.w3.org/2000/svg">
  <defs>
    <linearGradient id="gradient" x1="0%" y1="0%" x2="100%" y2="0%">
      <stop offset="0%" style="stop-color:#6366f1;stop-opacity:1" />
      <stop offset="100%" style="stop-color:#8b5cf6;stop-opacity:1" />
    </linearGradient>
  </defs>
  
  <!-- N -->
  <path d="M10 15 L10 45 L12 45 L28 20 L28 45 L32 45 L32 15 L30 15 L14 40 L14 15 Z" fill="#1f2937"/>
  
  <!-- e -->
  <path d="M40 32 C40 27 43 24 47 24 C51 24 54 27 54 32 L54 33 L44 33 C44.5 36 46 38 49 38 C51 38 52 37 53 35 L53.5 35.5 C52.5 38 50 39 47 39 C43 39 40 36 40 32 Z M44 31 L50 31 C50 28 49 26 47 26 C45 26 44 28 44 31 Z" fill="#1f2937"/>
  
  <!-- x -->
  <path d="M61 25 L65 25 L69 32 L73 25 L77 25 L71 34 L77 43 L73 43 L69 36 L65 43 L61 43 L67 34 Z" fill="#1f2937"/>
  
  <!-- o -->
  <path d="M82 32 C82 27 85 24 89 24 C93 24 96 27 96 32 C96 37 93 39 89 39 C85 39 82 36 82 32 Z M86 32 C86 35 87 37 89 37 C91 37 92 35 92 32 C92 28 91 26 89 26 C87 26 86 28 86 32 Z" fill="#1f2937"/>
  
  <!-- f -->
  <path d="M102 18 L102 25 L107 25 L107 27 L102 27 L102 38 C102 39 102.5 39.5 104 39.5 L107 39.5 L107 42 L104 42 C101 42 98 41 98 38 L98 27 L95 27 L95 25 L98 25 L98 18 Z" fill="#1f2937"/>
  
  <!-- y -->
  <path d="M113 25 L117 25 L122 38 L127 25 L131 25 L123 46 C122 48 120 49 118 49 C117 49 116 48.5 115 47.5 L115.5 46.5 C116.5 47.5 117 48 118 48 C119 48 120 47 120.5 45 L121 43 Z" fill="#1f2937"/>
  
  <!-- D -->
  <path d="M10 15 L10 45 L20 45 C27 45 32 40 32 30 C32 20 27 15 20 15 Z M14 19 L20 19 C25 19 28 23 28 30 C28 37 25 41 20 41 L14 41 Z" transform="translate(124, 0)" fill="url(#gradient)"/>
  
  <!-- i -->
  <path d="M6 16 C6 14.5 7 13.5 8.5 13.5 C10 13.5 11 14.5 11 16 C11 17.5 10 18.5 8.5 18.5 C7 18.5 6 17.5 6 16 Z M7 25 L7 43 L11 43 L11 25 Z" transform="translate(132, 0)" fill="url(#gradient)"/>
  
  <!-- g -->
  <path d="M17 32 C17 27 20 24 24 24 C26 24 28 25 29 27 L29 25 L33 25 L33 39 C33 44 30 47 25 47 C22 47 19 45 18 42 L18.5 41.5 C19.5 44 21.5 45 24 45 C28 45 29 42 29 39 L29 37 C28 38.5 26 39 24 39 C20 39 17 36 17 32 Z M21 32 C21 35 22 37 25 37 C28 37 29 35 29 32 C29 28 28 26 25 26 C22 26 21 28 21 32 Z" transform="translate(138, 0)" fill="url(#gradient)"/>
  
  <!-- i -->
  <path d="M39 16 C39 14.5 40 13.5 41.5 13.5 C43 13.5 44 14.5 44 16 C44 17.5 43 18.5 41.5 18.5 C40 18.5 39 17.5 39 16 Z M40 25 L40 43 L44 43 L44 25 Z" transform="translate(142, 0)" fill="url(#gradient)"/>
  
  <!-- t -->
  <path d="M50 18 L50 25 L55 25 L55 27 L50 27 L50 38 C50 39 50.5 39.5 52 39.5 L55 39.5 L55 42 L52 42 C49 42 46 41 46 38 L46 27 L43 27 L43 25 L46 25 L46 18 Z" transform="translate(143, 0)" fill="url(#gradient)"/>
  
  <!-- a -->
  <path d="M60 37 C61 38 62.5 39 65 39 C67 39 68 38 68 36.5 C68 35 67 34.5 65 34 L62 33 C59 32 57 30.5 57 28 C57 25 59 24 62 24 C64 24 66 24.5 67.5 26 L67 27 C65.5 25.5 64 25 62 25 C60 25 59 26 59 27.5 C59 29 60 29.5 62 30 L65 31 C68 32 70 33 70 36 C70 39 68 40 65 40 C62 40 60 39 58.5 37 Z" transform="translate(146, 0)" fill="url(#gradient)"/>
  
  <!-- l -->
  <path d="M74 15 L74 43 L78 43 L78 15 Z" transform="translate(148, 0)" fill="url(#gradient)"/>
</svg>